<?xml version="1.0" standalone="no"?>
<!DOCTYPE svg PUBLIC "-//W3C//DTD SVG 20010904//EN"
 "http://www.w3.org/TR/2001/REC-SVG-20010904/DTD/svg10.dtd">
<svg version="1.0" xmlns="http://www.w3.org/2000/svg"
 width="512.000000pt" height="512.000000pt" viewBox="0 0 512.000000 512.000000"
 preserveAspectRatio="xMidYMid meet">

<g transform="translate(0.000000,512.000000) scale(0.100000,-0.100000)"
fill="#000000" stroke="none">
<path d="M2899 4172 c-159 -53 -268 -191 -277 -354 -4 -75 -4 -78 26 -108 24
-23 39 -30 71 -30 61 0 99 38 111 112 11 69 30 108 70 141 30 26 86 47 124 47
78 0 164 -65 185 -143 24 -84 -3 -155 -84 -222 -85 -69 -168 -209 -194 -327
-6 -24 -11 -94 -12 -155 -2 -128 8 -154 69 -180 119 -49 1733 -749 1763 -764
43 -21 96 -80 116 -127 8 -19 14 -60 14 -91 1 -138 -92 -239 -236 -257 -46 -5
-66 -13 -87 -35 -55 -55 -27 -156 48 -175 44 -11 162 13 234 48 175 85 282
288 253 479 -25 162 -124 291 -278 364 -49 23 -449 197 -889 386 l-798 344 6
69 c8 101 48 177 142 268 56 54 85 92 112 148 35 70 37 79 37 175 0 92 -3 106
-32 167 -41 88 -113 160 -200 201 -87 40 -206 48 -294 19z"/>
<path d="M2016 3960 c-156 -56 -259 -188 -273 -349 -6 -70 -6 -70 30 -106 39
-39 78 -45 126 -20 30 15 46 47 55 108 19 137 159 216 275 155 61 -31 102 -85
108 -142 10 -86 -1 -109 -102 -216 -131 -139 -194 -277 -195 -430 l0 -45 -818
-344 c-449 -189 -857 -363 -907 -387 -131 -62 -217 -155 -258 -278 -90 -266
81 -555 357 -605 41 -8 576 -11 1740 -11 1829 0 1743 -2 1857 56 108 54 202
171 234 288 28 103 18 224 -27 318 -41 85 -99 154 -165 196 -43 27 -348 158
-1468 629 -176 74 -324 139 -329 143 -15 14 12 146 40 203 15 28 64 91 111
139 92 95 128 159 143 255 28 169 -75 356 -237 431 -81 36 -212 42 -297 12z
m1021 -1605 c530 -224 902 -387 923 -404 56 -45 85 -113 85 -196 -1 -82 -23
-134 -80 -183 -75 -67 65 -62 -1819 -62 -1635 0 -1713 1 -1751 19 -52 23 -103
74 -126 126 -25 54 -25 156 0 210 23 51 94 114 158 139 26 11 424 178 883 373
459 194 836 353 837 353 1 0 402 -169 890 -375z"/>
</g>
</svg>
